HIERARCHY
ROOT Hips
{
  OFFSET 0.0 0.0 0.0
  CHANNELS 6 Xposition Yposition Zposition Zrotation Yrotation Xrotation
  JOINT LHipJoint
  {
    OFFSET 0.0 0.0 0.0
    CHANNELS 3 Zrotation Yrotation Xrotation
    JOINT LeftUpLeg
    {
      OFFSET 1.363059998 -1.794630051 0.839290023
      CHANNELS 3 Zrotation Yrotation Xrotation
      JOINT LeftLeg
      {
        OFFSET 2.448110104 -6.726130009 0.0
        CHANNELS 3 Zrotation Yrotation Xrotation
        JOINT LeftFoot
        {
          OFFSET 2.562200069 -7.039589882 0.0
          CHANNELS 3 Zrotation Yrotation Xrotation
          JOINT LeftToeBase
          {
            OFFSET 0.157639995 -0.433109999 2.322550058
            CHANNELS 3 Zrotation Yrotation Xrotation
            End Site
            {
              OFFSET 0.0 -0.0 1.189659953
            }
          }
        }
      }
    }
  }
  JOINT RHipJoint
  {
    OFFSET 0.0 0.0 0.0
    CHANNELS 3 Zrotation Yrotation Xrotation
    JOINT RightUpLeg
    {
      OFFSET -1.305520058 -1.794630051 0.839290023
      CHANNELS 3 Zrotation Yrotation Xrotation
      JOINT RightLeg
      {
        OFFSET -2.54253006 -6.985549927 0.0
        CHANNELS 3 Zrotation Yrotation Xrotation
        JOINT RightFoot
        {
          OFFSET -2.568259954 -7.056230068 0.0
          CHANNELS 3 Zrotation Yrotation Xrotation
          JOINT RightToeBase
          {
            OFFSET -0.164729998 -0.452589989 2.363149881
            CHANNELS 3 Zrotation Yrotation Xrotation
            End Site
            {
              OFFSET -0.0 -0.0 1.21081996
            }
          }
        }
      }
    }
  }
  JOINT LowerBack
  {
    OFFSET 0.0 0.0 0.0
    CHANNELS 3 Zrotation Yrotation Xrotation
    JOINT Spine
    {
      OFFSET 0.028270001 2.035589933 -0.193379998
      CHANNELS 3 Zrotation Yrotation Xrotation
      JOINT Spine1
      {
        OFFSET 0.05672 2.04885006 -0.042750001
        CHANNELS 3 Zrotation Yrotation Xrotation
        JOINT Neck
        {
          OFFSET 0.0 0.0 0.0
          CHANNELS 3 Zrotation Yrotation Xrotation
          JOINT Neck1
          {
            OFFSET -0.054170001 1.74624002 0.172020003
            CHANNELS 3 Zrotation Yrotation Xrotation
            JOINT Head
            {
              OFFSET 0.10407 1.761360049 -0.123970002
              CHANNELS 3 Zrotation Yrotation Xrotation
              End Site
              {
                OFFSET 0.0372 1.770439982 -0.062410001
              }
            }
          }
        }
        JOINT LeftShoulder
        {
          OFFSET 0.0 0.0 0.0
          CHANNELS 3 Zrotation Yrotation Xrotation
          JOINT LeftArm
          {
            OFFSET 3.362410069 1.200889945 -0.311210006
            CHANNELS 3 Zrotation Yrotation Xrotation
            JOINT LeftForeArm
            {
              OFFSET 4.982999802 -0.0 -0.0
              CHANNELS 3 Zrotation Yrotation Xrotation
              JOINT LeftHand
              {
                OFFSET 3.483560085 -0.0 -0.0
                CHANNELS 3 Zrotation Yrotation Xrotation
                JOINT LeftFingerBase
                {
                  OFFSET 0.0 0.0 0.0
                  CHANNELS 3 Zrotation Yrotation Xrotation
                  JOINT LeftHandIndex1
                  {
                    OFFSET 0.715260029 -0.0 -0.0
                    CHANNELS 3 Zrotation Yrotation Xrotation
                    End Site
                    {
                      OFFSET 0.576659977 -0.0 -0.0
                    }
                  }
                }
                JOINT LThumb
                {
                  OFFSET 0.0 0.0 0.0
                  CHANNELS 3 Zrotation Yrotation Xrotation
                  End Site
                  {
                    OFFSET 0.585470021 -0.0 0.585470021
                  }
                }
              }
            }
          }
        }
        JOINT RightShoulder
        {
          OFFSET 0.0 0.0 0.0
          CHANNELS 3 Zrotation Yrotation Xrotation
          JOINT RightArm
          {
            OFFSET -3.136600018 1.374050021 -0.404650003
            CHANNELS 3 Zrotation Yrotation Xrotation
            JOINT RightForeArm
            {
              OFFSET -5.241899967 -0.0 -0.0
              CHANNELS 3 Zrotation Yrotation Xrotation
              JOINT RightHand
              {
                OFFSET -3.444169998 -0.0 -0.0
                CHANNELS 3 Zrotation Yrotation Xrotation
                JOINT RightFingerBase
                {
                  OFFSET 0.0 0.0 0.0
                  CHANNELS 3 Zrotation Yrotation Xrotation
                  JOINT RightHandIndex1
                  {
                    OFFSET -0.622529984 -0.0 -0.0
                    CHANNELS 3 Zrotation Yrotation Xrotation
                    End Site
                    {
                      OFFSET -0.501900017 -0.0 -0.0
                    }
                  }
                }
                JOINT RThumb
                {
                  OFFSET 0.0 0.0 0.0
                  CHANNELS 3 Zrotation Yrotation Xrotation
                  End Site
                  {
                    OFFSET -0.509559989 -0.0 0.509559989
                  }
                }
              }
            }
          }
        }
      }
    }
  }
}
MOTION
Frames: 7
Frame Time: 0.0083333
11.502322197 27.201999664 24.756988525 -173.147491455 -12.996998787 -175.908294678 0.0 -0.0 0.0 3.35139966 13.275697708 -60.072395325 23.068321228 19.772800446 99.003807068 -12.944900513 -52.461097717 11.973098755 0.721599996 5.427999496 15.133502007 0.0 -0.0 0.0 36.84960556 -8.251700401 -0.841200531 0.0 -0.0 0.0 0.707899988 -15.950101852 0.712500036 -8.499300003 -16.474496841 54.341697693 4.347899437 -11.537800789 18.382099152 -0.588500023 -16.214096069 9.71930027 0.173599988 -8.603000641 -0.711399913 -35.569400787 -2.165400743 -16.55850029 25.526397705 3.550599813 -0.481100172 15.017100334 2.948299408 1.587700129 0.0 -0.0 0.0 38.522583008 -36.631790161 -84.833091736 99.653808594 -59.644886017 -68.350502014 0.0 -0.0 30.25689888 36.265205383 -10.56019783 -7.657701015 -7.125 0.0 0.0 6.408700466 17.011995316 -4.280299664 0.0 -0.0 0.0 -122.113304138 51.975894928 -171.644699097 -129.803009033 53.07460022 -93.668395996 0.0 -0.0 22.447303772 -25.037797928 -13.463202477 6.206699848 7.125 -0.0 0.0 2.17460084 -44.770107269 0.012299919 
11.503521919 27.224500656 24.719688416 -173.144088745 -12.626008034 -175.858093262 0.0 -0.0 0.0 3.628299952 13.947597504 -59.91468811 23.164028168 19.758296967 99.286903381 -12.739998817 -52.553886414 10.112498283 0.481600106 4.450100899 12.346502304 0.0 -0.0 0.0 36.83039856 -7.861198425 -0.605500937 0.0 -0.0 0.0 0.726700008 -16.048803329 0.458300084 -8.432800293 -16.428501129 54.106906891 4.125801086 -11.417600632 18.785303116 -0.60559994 -16.084897995 9.701802254 0.324499995 -8.552399635 -0.877099991 -35.784404755 -2.105101585 -16.27989769 25.652898788 3.617699862 -0.794900298 15.100798607 2.989500046 1.427700043 0.0 -0.0 0.0 38.928611755 -36.133304596 -85.11580658 100.068710327 -59.613414764 -68.7084198 0.0 -0.0 30.397201538 36.095306396 -10.3793993 -7.483398438 -7.125 0.0 0.0 6.316300392 17.256002426 -4.184001446 0.0 -0.0 0.0 -122.305496216 51.494606018 -172.584289551 -129.804397583 53.07409668 -93.669494629 0.0 -0.0 22.732099533 -25.189201355 -12.075100899 5.619299412 7.125 -0.0 0.0 1.848399639 -43.273303986 0.078800209 
11.499321938 27.232099533 24.66658783 -173.111999512 -13.236000061 -175.538711548 0.0 -0.0 0.0 3.834700823 13.515094757 -60.268100739 23.315919876 19.734296799 99.736297607 -11.942699432 -52.375400543 5.943398476 0.173799992 2.685400009 7.403997898 0.0 -0.0 0.0 36.957607269 -8.118700027 -1.10670054 0.0 -0.0 0.0 0.735800087 -16.036500931 0.178200081 -8.393501282 -16.401205063 53.967803955 4.653199673 -11.784899712 18.578203201 -0.639499903 -16.458902359 9.665399551 0.089199997 -8.707199097 -0.963500023 -36.058612823 -2.004701614 -15.91460228 25.721200943 3.734699726 -1.22179985 15.165902138 3.0546 1.203400254 0.0 -0.0 0.0 39.280109406 -35.636898041 -85.324790955 100.666770935 -59.565719604 -69.224189758 0.0 -0.0 30.546300888 35.857200623 -10.069298744 -7.201899052 -7.125 0.0 0.0 6.193201065 17.665201187 -4.045600414 0.0 -0.0 0.0 -122.634094238 50.825893402 -173.655288696 -130.254089355 52.892505646 -94.0286026 0.0 -0.0 22.65199852 -24.647397995 -11.242099762 5.111598492 7.125 -0.0 0.0 2.235600233 -42.305309296 0.148699909 
11.493322372 27.231399536 24.623786926 -173.013412476 -13.09599781 -175.68031311 0.0 -0.0 0.0 4.214701653 13.956598282 -59.920593262 23.477796555 19.707481384 100.216293335 -10.934099197 -51.925693512 1.940700531 0.058200009 1.556300044 4.28099966 0.0 -0.0 0.0 36.999595642 -8.026900291 -0.831900358 0.0 -0.0 0.0 0.742099822 -16.111595154 0.200799987 -8.390299797 -16.398899078 53.956607819 4.724699974 -11.793699265 19.150802612 -0.669799864 -16.452098846 9.68409729 0.149899989 -8.712798119 -1.249199986 -36.344398499 -2.02149868 -15.83409977 25.87830162 3.729200125 -1.2154001 15.286999702 3.051499844 1.18659997 0.0 -0.0 0.0 39.654598236 -35.196495056 -85.592384338 101.304084778 -59.51159668 -69.773582458 0.0 -0.0 30.738197327 35.702594757 -9.808502197 -6.979699135 -7.125 0.0 0.0 6.120101452 18.001703262 -3.951699018 0.0 -0.0 0.0 -123.032516479 49.937103271 -174.800308228 -131.317489624 52.450088501 -94.874183655 0.0 -0.0 22.519699097 -23.987201691 -11.027700424 4.865000725 7.125 -0.0 0.0 2.800900221 -42.004310608 0.207199633 
11.48552227 27.231199265 24.580387115 -173.243896484 -13.675004005 -175.580810547 0.0 -0.0 0.0 4.196699619 13.496496201 -59.809391022 23.656398773 19.676397324 100.746292114 -9.933703423 -50.831119537 -0.100396879 0.056600016 1.534600019 4.221099854 0.0 -0.0 0.0 36.816101074 -8.458701134 -1.06229949 0.0 -0.0 0.0 0.754200101 -16.267801285 0.278500021 -8.409200668 -16.412101746 54.023395538 4.732499599 -12.06709671 19.381597519 -0.722299933 -16.785499573 9.659701347 0.23059997 -8.872900009 -1.416999936 -36.58959198 -2.04619813 -15.718998909 26.051700592 3.694300413 -1.231000185 15.406798363 3.033599854 1.168899775 0.0 -0.0 0.0 39.934307098 -34.768104553 -85.795509338 102.031555176 -59.445896149 -70.400245667 0.0 -0.0 31.123502731 35.673301697 -9.358600616 -6.65819931 -7.125 0.0 0.0 6.157197952 18.549098969 -3.901199102 0.0 -0.0 0.0 -122.929298401 49.174297333 -175.226104736 -131.833206177 52.22889328 -95.282501221 0.0 -0.0 22.720899582 -23.493600845 -11.897399902 5.120800018 7.125 -0.0 0.0 3.360599518 -42.892902374 0.175000459 
11.477022171 27.232500076 24.530586243 -173.45010376 -12.434997559 -175.256698608 0.0 -0.0 0.0 4.29859972 15.168595314 -59.342693329 23.812597275 19.647895813 101.210411072 -8.57889843 -49.243091583 -2.992400408 0.043900002 1.351899743 3.717499495 0.0 -0.0 0.0 36.513408661 -7.238800049 -0.526700735 0.0 -0.0 0.0 0.775599837 -16.511098862 0.335700035 -8.407099724 -16.41069603 54.016101837 4.131700516 -11.616700172 19.22419548 -0.860599995 -16.332897186 9.698802948 0.227199972 -8.669699669 -1.180100083 -36.710090637 -1.940998912 -15.193598747 26.037502289 3.765299797 -1.921300173 15.399698257 3.080699682 0.863899887 0.0 -0.0 0.0 40.170303345 -34.204311371 -85.88759613 102.60144043 -59.391399384 -70.890838623 0.0 -0.0 31.611505508 35.480892181 -8.659302711 -6.125300407 -7.125 0.0 0.0 6.109500885 19.418201447 -3.752099991 0.0 -0.0 0.0 -122.601989746 48.426998138 -175.132980347 -132.099014282 52.113010406 -95.492507935 0.0 -0.0 22.333499908 -23.089706421 -12.885202408 5.430701256 7.125 -0.0 0.0 3.876000404 -43.910713196 0.10439992 
11.470822334 27.249300003 24.482089996 -173.830413818 -13.583996773 -174.718002319 0.0 -0.0 0.0 3.949098825 14.006095886 -59.640903473 23.984075546 19.615097046 101.720985413 -7.056798935 -47.181400299 -6.183799267 0.008599999 0.59980005 1.648299813 0.0 -0.0 0.0 36.26360321 -7.919098854 -1.398700476 0.0 -0.0 0.0 0.812600076 -16.691402435 -0.18870002 -8.38780117 -16.397197723 53.947902679 4.687701225 -12.208900452 18.67539978 -0.983500183 -16.978097916 9.613598824 -0.108900018 -8.941802025 -1.201600075 -36.880500793 -1.679600716 -14.600702286 25.981904984 4.023400784 -2.564200163 15.385102272 3.211899996 0.495599806 0.0 -0.0 0.0 40.410896301 -33.649692535 -85.970489502 102.917572021 -59.36000061 -71.162864685 0.0 -0.0 31.674402237 35.225891113 -8.310400009 -5.827199459 -7.125 0.0 0.0 5.971799374 19.869403839 -3.606100798 0.0 -0.0 0.0 -122.736312866 47.641490936 -175.348602295 -132.779891968 51.810894012 -96.028694153 0.0 -0.0 20.960201263 -24.301200867 -12.43419838 5.553098202 7.125 -0.0 0.0 2.704200029 -43.563598633 0.095899969 
